<svg width="2121" height="1352" viewBox="0 0 2121 1352" fill="none" xmlns="http://www.w3.org/2000/svg">
<path d="M192.858 927L1807.92 954.693C1859.28 998.616 1888.63 1023.75 1940 1067.68L1935.06 1352L186 1320.09L192.858 927Z" fill="#FFE500"/>
<path d="M957.086 1170.63L1016.2 1157.29L1016.67 1131.7L957.702 1119.91L958.181 1096.48L1050.06 1085.31L1050.74 1046.92L908.992 1044.34L905.297 1245.12L1049.72 1247.69L1050.4 1209.43L956.744 1191.96L957.155 1170.56L957.086 1170.63ZM728.723 1242.07L758.619 1242.61L778.322 1183.16L868.08 1171.72L884.431 1044.01L724.413 1041.16L728.791 1242.07H728.723ZM596.48 1038.86L511.442 1238.21L537.85 1238.69L596.069 1177H603.868L662.499 1240.92L715.382 1241.87L635.065 1039.67L596.48 1038.93V1038.86ZM530.598 1037.71L377.626 1035L374 1235.77L403.965 1236.25L429.483 1168.94L528.682 1141.79L530.598 1037.71ZM1261.8 1050.71L1248.32 1251.35L1319.88 1252.63L1313.79 1051.59L1261.8 1050.64V1050.71ZM1663.04 1057.89L1549.34 1055.86L1531.96 1198.6L1560.83 1256.83L1682.13 1259L1711 1159.8C1710.66 1155.74 1663.52 1057.89 1663.11 1057.89M1153.3 1048.81L1076.4 1047.46L1072.77 1248.23L1223.97 1250.87L1225.2 1181.33L1115.74 1205.71L1153.3 1048.75V1048.81ZM1342.25 1117.54L1400.81 1114.16L1405.06 1254.06L1461.5 1255L1467.18 1110.43L1520.33 1107.18L1521.7 1055.25L1343.62 1052.06L1342.32 1117.48L1342.25 1117.54Z" fill="black"/>
<path d="M163.724 318.229L168.835 408.881L63.9715 414.842L58.8605 324.189C67.8453 321.784 74.9461 316.644 80.1631 308.769C85.3623 300.579 87.3762 286.097 86.205 265.322L84.3948 233.216C83.6672 220.311 81.9785 212.67 79.3286 210.295C76.6609 207.604 67.6465 206.696 52.2854 207.569L47.2011 117.388L207.082 108.301L211.048 178.651C211.652 189.353 213.482 199.512 216.54 209.127C219.912 218.724 224.659 227.612 230.781 235.79L251.711 263.967L268.48 235.068C272.218 228.856 275.545 220.93 278.461 211.291C281.673 201.32 282.862 188.937 282.028 174.143L278.088 104.265L436.088 95.2846L441.092 184.048C425.731 184.922 416.876 186.846 414.528 189.821C412.476 192.464 411.813 200.238 412.541 213.144L416.081 275.939C416.827 289.159 418.376 297.124 420.731 299.832C423.381 302.207 432.386 302.959 447.747 302.085L452.858 392.738L280.751 402.52L275.64 311.868C296.644 310.674 310.618 307.511 317.562 302.38C324.82 297.231 328.191 290.092 327.677 280.964L322.672 192.2L230.959 356.09L207.447 357.426L111.065 204.228L114.419 263.718C115.591 284.493 119.707 298.942 126.77 307.067C133.832 315.191 146.15 318.912 163.724 318.229Z" fill="white"/>
<path d="M609.882 297.606L614.726 383.537L478.357 391.289L473.246 300.636C477.878 299.11 483.204 295.965 489.226 291.202C495.229 286.124 501.189 280.259 507.103 273.608C513.001 266.641 518.531 258.748 523.695 249.929C529.172 241.092 533.691 231.993 537.252 222.633C538.884 218.12 540.055 213.79 540.765 209.645C541.788 205.482 542.14 200.567 541.821 194.901C541.59 190.809 539.966 187.112 536.95 183.81C534.247 180.49 529.76 179.009 523.49 179.365L502.33 180.568L497.325 91.8039L712.694 79.5625L716.421 145.663C717.184 159.198 721.082 172.555 728.115 185.733C735.148 198.912 741.403 209.451 746.88 217.349L767.943 247.888C775.828 259.439 782.116 267.765 786.806 272.867C791.81 277.95 796.229 281.015 800.062 282.06L805.173 372.713L647.643 381.667L642.798 295.736C650.636 295.29 656.19 293.396 659.461 290.052C662.732 286.708 664.234 282.676 663.968 277.954C663.79 274.806 662.995 271.852 661.581 269.09C660.481 266.311 659.242 263.855 657.863 261.723L653.259 255.353L560.152 260.646C562.216 269.37 567.223 277.295 575.173 284.422C583.122 291.549 594.692 295.944 609.882 297.606ZM567.578 216.647C565.561 219.919 563.875 223.488 562.52 227.355C561.462 230.888 560.551 234.256 559.788 237.457L638.317 232.993L594.124 168.719L567.578 216.647Z" fill="white"/>
<path d="M990.825 154.223L938.628 157.19L941.716 211.959L991.091 209.153C1008.02 208.19 1019.81 205.31 1026.46 200.511C1033.42 195.695 1036.63 188.565 1036.1 179.122C1035.5 168.42 1031.8 161.368 1025 157.965C1018.21 154.562 1006.81 153.314 990.825 154.223ZM1147.11 232.02C1148.51 256.886 1148.58 277.566 1147.31 294.058C1146.35 310.533 1143.32 323.652 1138.21 333.416C1133.41 343.162 1126.26 350.2 1116.75 354.529C1107.54 358.526 1095.57 360.943 1080.84 361.781C1068.3 362.494 1057.24 361.543 1047.65 358.93C1038.09 356.632 1029.79 351.735 1022.77 344.24C1016.05 336.728 1010.58 326.144 1006.35 312.491C1002.44 298.819 999.867 281.124 998.642 259.405C998.11 249.962 995.891 244.089 991.988 241.784C988.379 239.147 981.56 238.114 971.528 238.684L943.313 240.288L944.405 259.646C945.026 270.663 947.123 277.175 950.696 279.182C954.268 281.19 963.735 281.757 979.096 280.884L983.701 362.565L830.404 371.279L825.293 280.626C839.713 279.806 848.264 278.057 850.943 275.379C853.605 272.386 854.563 264.279 853.818 251.059L850.65 194.873C849.78 179.45 847.846 170.244 844.847 167.257C841.848 164.27 833.138 163.186 818.718 164.006L813.633 73.8252L988.562 63.8825C1032.76 61.3701 1065.25 65.839 1086.03 77.2892C1106.78 88.4247 1118.01 109.101 1119.71 139.319C1120.55 154.113 1118.72 166.374 1114.24 176.102C1110.05 185.497 1104.03 192.945 1096.16 198.444C1088.6 203.926 1079.71 207.905 1069.47 210.382C1059.53 212.526 1049.23 213.901 1038.57 214.506L1034.34 214.747L1035.45 234.577L1058.02 233.294C1071.51 232.528 1081.17 233.873 1087.03 237.33C1093.18 240.454 1096.46 245.635 1096.87 252.875L1096.97 254.763C1097.37 261.688 1098.58 266.514 1100.62 269.24C1102.66 271.966 1106.19 273.186 1111.21 272.901C1116.85 272.58 1120.46 269.691 1122.04 264.233C1123.91 258.442 1124.43 247.993 1123.57 232.884C1123.45 230.681 1123.13 227.857 1122.62 224.412C1122.43 220.95 1122.06 217.181 1121.52 213.107L1145.5 211.744C1146.06 216.133 1146.44 220.059 1146.63 223.521C1146.83 226.984 1146.99 229.817 1147.11 232.02Z" fill="white"/>
<path d="M1427.55 342.074C1416.26 342.716 1406.14 341.712 1397.18 339.063C1388.56 336.712 1381.05 331.77 1374.65 324.24C1368.56 316.691 1363.56 306.081 1359.64 292.41C1356.04 278.721 1353.63 261.017 1352.4 239.298C1351.59 224.819 1348.71 215.667 1343.78 211.842C1339.14 207.685 1330.4 205.971 1317.54 206.702L1303.44 207.504L1304.45 225.445C1305.19 238.666 1306.74 246.63 1309.1 249.338C1311.75 251.713 1319.34 252.545 1331.88 251.832L1336.99 342.485L1177.11 351.572L1172 260.92C1188.62 259.975 1198.42 258.155 1201.41 255.459C1204.7 252.43 1205.97 244.305 1205.23 231.085L1201.79 170.178C1201.05 156.958 1198.88 149.187 1195.29 146.864C1192 144.21 1182.04 143.355 1165.43 144.299L1160.34 54.1187L1320.22 45.0312L1325.31 135.212C1312.77 135.924 1305.32 137.768 1302.98 140.744C1300.92 143.387 1300.27 151.318 1301.01 164.538L1301.79 178.231C1318.52 173.806 1331.68 170.216 1341.28 167.46C1351.17 164.372 1358.57 161.741 1363.48 159.567C1368.37 157.079 1371.39 154.854 1372.54 152.895C1373.98 150.602 1374.62 148.039 1374.46 145.207C1374.23 141.115 1372.49 138.213 1369.25 136.503C1365.99 134.478 1359.5 133.584 1349.76 133.822L1344.68 43.6413L1480.1 35.9437L1485.19 126.124C1466.28 136.672 1446.74 146.94 1426.54 156.93C1406.64 166.587 1385.58 175.047 1363.34 182.31L1364.3 199.308L1391.58 197.757C1409.13 196.76 1421.93 197.927 1429.98 201.258C1438.02 204.275 1442.39 212.079 1443.1 224.67L1443.23 227.03C1443.62 233.955 1444.84 238.781 1446.88 241.507C1448.92 244.233 1452.92 245.426 1458.87 245.088C1463.89 244.803 1467.21 242.403 1468.85 237.89C1470.48 233.376 1470.96 225.139 1470.28 213.178C1470.07 209.4 1469.66 205.003 1469.07 199.984C1468.77 194.633 1468.26 188.504 1467.56 181.597L1491.54 180.234C1492.24 187.141 1492.76 193.427 1493.08 199.093C1493.4 204.759 1493.64 209.166 1493.82 212.313C1495.22 237.18 1495.29 257.859 1494.02 274.352C1493.06 290.827 1490.02 303.946 1484.91 313.709C1480.12 323.455 1472.97 330.493 1463.46 334.823C1454.25 338.82 1442.28 341.237 1427.55 342.074Z" fill="white"/>
<path d="M1810.4 315.576L1534.84 331.239L1529.73 240.587C1538.2 240.105 1544.77 239.574 1549.45 238.992C1554.12 238.095 1557.51 236.797 1559.61 235.099C1561.7 233.085 1562.8 230.181 1562.9 226.386C1563.31 222.573 1563.33 217.362 1562.96 210.752L1559.52 149.845C1559.15 143.235 1558.55 138.059 1557.71 134.317C1557.18 130.558 1555.77 127.954 1553.49 126.505C1551.19 124.741 1547.68 123.835 1542.96 123.788C1538.22 123.425 1531.62 123.485 1523.16 123.966L1518.07 33.7857L1791.75 18.2301L1799.15 149.487L1775.64 150.824C1773.28 142.432 1770.07 135.667 1766 130.53C1761.94 125.393 1755.44 121.657 1746.5 119.323C1737.55 116.675 1725.2 115.324 1709.48 115.27C1693.73 114.902 1673.01 115.449 1647.3 116.91L1649.72 159.875C1667.83 157.583 1680.9 155.103 1688.93 152.437C1696.94 149.455 1704.46 146.186 1711.49 142.628L1730.77 141.532L1733.75 194.413L1714.47 195.509C1708.02 192.718 1700.66 190.452 1692.39 188.712C1684.41 186.639 1670.67 185.526 1651.16 185.371L1653.85 233.058C1681.12 231.508 1702.71 229.492 1718.61 227.009C1734.82 224.509 1747.06 221.287 1755.33 217.343C1763.89 213.067 1769.59 208.164 1772.43 202.635C1775.56 196.773 1777.83 189.697 1779.25 181.406L1802.76 180.07L1810.4 315.576Z" fill="white"/>
<path d="M2112.48 0L2121 151.087L2092.79 152.691L2091.29 126.251C2090.62 114.29 2087 105.812 2080.43 100.817C2074.15 95.49 2062.7 93.2986 2046.09 94.2429L2021.17 95.6595L2026.17 184.423C2026.54 191.033 2026.99 196.218 2027.52 199.978C2028.36 203.719 2030.24 206.454 2033.17 208.182C2036.4 209.578 2041.16 210.412 2047.47 210.685C2054.07 210.626 2063.17 210.267 2074.77 209.607L2079.88 300.26L1887.55 311.191L1882.44 220.539C1893.72 219.898 1902.49 219.241 1908.75 218.57C1914.98 217.584 1919.46 216.224 1922.2 214.49C1925.22 212.423 1926.79 209.492 1926.89 205.697C1927.3 201.884 1927.32 196.673 1926.95 190.063L1921.95 101.299L1897.49 102.689C1880.88 103.633 1869.6 107.117 1863.65 113.139C1857.99 118.828 1855.5 127.654 1856.18 139.615L1857.67 166.055L1829.45 167.659L1820.93 16.5713L2112.48 0Z" fill="white"/>
<path d="M231.763 561.939L164.571 559.348L161.408 642.008L224.969 644.46C246.761 645.301 262.22 642.651 271.347 636.51C280.892 629.979 285.936 619.623 286.479 605.441C287.099 589.233 283.28 578.129 275.022 572.13C266.765 566.13 252.345 562.733 231.763 561.939ZM283.2 706.967C257.776 705.986 235.309 701.67 215.798 694.019C196.706 685.979 181.704 676.675 170.792 666.109L160.501 665.713L159.524 691.24C159.183 700.155 159.525 707.066 160.55 711.975C161.978 716.9 165.067 720.671 169.816 723.289C174.566 725.907 181.776 727.606 191.446 728.384C201.519 729.179 214.829 729.895 231.375 730.533L227.608 828.997L0 820.217L4.46492 703.52C26.2572 704.361 39.2331 703.238 43.3927 700.152C47.5679 696.661 49.981 686.406 50.6321 669.388L53.3994 597.06C54.1591 577.205 52.5986 565.174 48.7181 560.966C44.8375 556.758 32.0011 554.234 10.2089 553.394L14.6505 437.304L239.837 445.99C268.49 447.095 293.022 450.273 313.433 455.524C333.859 460.37 350.328 468.31 362.839 479.343C375.769 489.987 384.927 504.137 390.314 521.794C396.104 539.467 398.495 561.472 397.488 587.81C396.557 612.122 392.554 632.258 385.477 648.216C378.819 663.786 370.065 676.028 359.216 684.943C348.77 693.873 336.819 699.905 323.362 703.038C310.309 706.187 296.921 707.496 283.2 706.967Z" fill="white"/>
<path d="M674.689 462.763L670.247 578.853C655.315 578.277 643.193 578.215 633.88 578.667C624.986 578.73 618.072 579.884 613.136 582.128C608.619 583.983 605.461 587.31 603.66 592.11C602.264 596.926 601.402 603.589 601.077 612.098L596.705 726.364L619.708 727.251C642.711 728.139 661.298 728.247 675.469 727.576C689.656 726.5 700.676 723.679 708.529 719.112C716.383 714.545 721.699 707.649 724.477 698.423C727.658 689.212 729.551 676.705 730.156 660.903L730.714 646.316L762.192 647.53L754.471 849.319L419.718 836.407L424.183 719.709C435.079 720.13 443.562 720.254 449.631 720.082C455.715 719.505 460.208 718.258 463.111 716.341C466.029 714.019 467.783 710.435 468.372 705.588C469.365 700.757 470.025 694.086 470.35 685.577L473.35 607.171C473.676 598.662 473.528 591.96 472.907 587.067C472.689 582.189 471.207 578.683 468.459 576.548C465.728 574.007 461.343 572.418 455.305 571.779C449.282 570.735 440.823 570.003 429.927 569.583L434.369 453.493L674.689 462.763Z" fill="white"/>
<path d="M962.098 746.545L957.865 857.164L782.317 850.393L786.782 733.696C792.897 732.308 800.099 728.934 808.387 723.573C816.691 717.806 825.034 711.026 833.415 703.234C841.812 695.036 849.851 685.607 857.534 674.946C865.62 664.302 872.511 653.205 878.207 641.657C880.845 636.077 882.871 630.677 884.283 625.456C886.099 620.251 887.146 614.002 887.425 606.708C887.627 601.44 885.997 596.508 882.535 591.911C879.477 587.329 873.913 584.882 865.842 584.571L838.601 583.52L842.973 469.254L1120.22 479.948L1116.96 565.04C1116.3 582.464 1119.67 600.043 1127.07 617.778C1134.47 635.513 1141.2 649.772 1147.26 660.556L1170.52 702.236C1179.21 717.992 1186.25 729.423 1191.64 736.529C1197.43 743.651 1202.71 748.116 1207.49 749.923L1203.03 866.621L1000.24 858.799L1004.47 748.179C1014.56 748.569 1021.9 746.823 1026.5 742.942C1031.09 739.061 1033.5 734.082 1033.74 728.004C1033.89 723.952 1033.23 720.071 1031.76 716.362C1030.69 712.669 1029.4 709.373 1027.89 706.474L1022.77 697.755L902.912 693.132C904.496 704.555 909.944 715.316 919.257 725.414C928.571 735.513 942.851 742.556 962.098 746.545ZM917.763 637.704C914.783 641.647 912.192 646.011 909.988 650.796C908.203 655.191 906.628 659.391 905.262 663.396L1006.35 667.295L957.573 579.588L917.763 637.704Z" fill="white"/>
<path d="M1420.76 607.802C1404.62 607.179 1392.47 613 1384.32 625.266C1376.59 637.142 1372.3 654.223 1371.45 676.508C1370.38 704.467 1375.91 723.753 1388.03 734.365C1400.15 744.978 1418.32 750.751 1442.54 751.685C1459.89 752.355 1474.75 749.478 1487.12 743.057C1499.51 736.23 1506.75 721.292 1508.84 698.243L1639.59 703.286C1638.52 731.245 1634.12 756.64 1626.37 779.472C1619.03 802.319 1607.38 821.551 1591.43 837.168C1575.89 852.394 1555.24 863.975 1529.48 871.908C1504.11 879.858 1473.27 883.132 1436.95 881.731C1406.69 880.563 1378.77 876.037 1353.21 868.153C1327.64 860.268 1305.67 848.261 1287.29 832.132C1268.93 815.598 1254.79 794.356 1244.87 768.409C1235.37 742.071 1231.34 710.061 1232.78 672.377C1233.71 648.065 1237.05 624.252 1242.79 600.937C1248.94 577.638 1257.8 557.284 1269.38 539.875C1281.37 522.077 1296.66 508.058 1315.24 497.818C1334.24 487.189 1356.85 482.38 1383.08 483.392C1396.8 483.921 1409.65 486.242 1421.62 490.356C1433.58 494.47 1444.01 501.771 1452.91 512.259C1461.82 522.342 1468.96 536.414 1474.33 554.477C1479.7 572.539 1482.66 595.581 1483.2 623.602L1511.65 624.699L1516.61 495.238L1646.76 500.258L1640.45 664.971L1461.27 658.06C1457.97 638.86 1452.8 625.878 1445.79 619.115C1438.79 611.946 1430.45 608.175 1420.76 607.802Z" fill="white"/>
<path d="M2042.47 899L1687.74 885.317L1692.2 768.62C1703.1 769.04 1711.58 769.164 1717.65 768.993C1723.74 768.416 1728.23 767.169 1731.13 765.252C1734.05 762.93 1735.8 759.345 1736.39 754.498C1737.39 749.667 1738.05 742.997 1738.37 734.487L1741.37 656.081C1741.7 647.572 1741.55 640.871 1740.93 635.977C1740.71 631.099 1739.23 627.593 1736.48 625.458C1733.75 622.918 1729.36 621.328 1723.33 620.69C1717.3 619.646 1708.84 618.914 1697.95 618.493L1702.39 502.404L2054.7 515.993L2048.23 684.961L2017.97 683.794C2015.96 672.76 2012.67 663.706 2008.09 656.63C2003.51 649.555 1995.64 643.976 1984.48 639.894C1973.34 635.406 1957.7 632.165 1937.57 630.171C1917.45 627.772 1890.85 625.934 1857.76 624.658L1855.64 679.967C1879.11 679.249 1896.15 677.675 1906.75 675.243C1917.36 672.406 1927.39 669.141 1936.83 665.447L1961.65 666.404L1959.04 734.477L1934.22 733.52C1926.31 729.157 1917.16 725.355 1906.77 722.113C1896.81 718.483 1879.35 715.374 1854.39 712.789L1852.04 774.176C1887.15 775.531 1915.03 775.592 1935.69 774.359C1956.75 773.143 1972.82 770.516 1983.89 766.479C1995.37 762.053 2003.26 756.473 2007.56 749.74C2012.28 742.618 2016.05 733.836 2018.88 723.394L2049.14 724.562L2042.47 899Z" fill="white"/>
</svg>
